# xmcd CD database file
#
# Track frame offsets:
#	150
#	20136
#	43047
#	63921
#	85931
#	107663
#	129714
#	152617
#	174410
#	196880
#	215834
#	238865
#	259919
#	283230
#	307697
#
# Disc length: 4382 seconds
#
# Revision: 0
# Processed by: cddbd v1.5.1PL2 Copyright (c) Steve Scherf et al.
# Submitted via: CDex 1.51
#
DISCID=d7111c0f
DTITLE=Victor Manuelle - Variado 1
DYEAR=1900
DGENRE=Salsa
TTITLE0=Tengo ganas
TTITLE1=He tratado
TTITLE2=Por ella
TTITLE3=Que habria sido de mi
TTITLE4=Como una estrella
TTITLE5=No hace falta nada
TTITLE6=Apiadate de mi
TTITLE7=Pensamiento y palabra
TTITLE8=Se me rompe el alma
TTITLE9=Como quisiera decirte
TTITLE10=Dile a ella
TTITLE11=Si la ves
TTITLE12=Asi es la mujer
TTITLE13=Volveras
TTITLE14=No alcanzo
EXTD=
EXTT0=
EXTT1=
EXTT2=
EXTT3=
EXTT4=
EXTT5=
EXTT6=
EXTT7=
EXTT8=
EXTT9=
EXTT10=
EXTT11=
EXTT12=
EXTT13=
EXTT14=
PLAYORDER=
